<svg width="31" height="31" viewBox="0 0 31 31" fill="none" xmlns="http://www.w3.org/2000/svg">
<path d="M30.625 23.2174C30.625 23.2174 30.625 23.0949 30.625 23.0249V7.58985C30.6245 7.38904 30.5763 7.19119 30.485 7.01235C30.3562 6.73445 30.1329 6.51124 29.855 6.38235L15.855 0.117355C15.6845 0.0400225 15.4996 0 15.3125 0C15.1254 0 14.9404 0.0400225 14.77 0.117355L0.77 6.38235C0.544845 6.49567 0.354445 6.66767 0.218925 6.88021C0.0833873 7.09273 0.0077525 7.33792 0 7.58985V23.0249C0.01309 23.2755 0.090895 23.5185 0.225838 23.7301C0.36078 23.9417 0.548275 24.1148 0.77 24.2324L14.77 30.4974C14.9394 30.5782 15.1247 30.62 15.3125 30.62C15.5003 30.62 15.6856 30.5782 15.855 30.4974L29.855 24.2324C30.0571 24.1398 30.2332 23.9987 30.3676 23.8216C30.502 23.6445 30.5903 23.437 30.625 23.2174ZM2.625 9.60235L14 14.7124V27.2774L2.625 22.1849V9.60235ZM16.625 14.7124L28 9.60235V22.1849L16.625 27.2774V14.7124ZM15.3475 2.74236L26.145 7.58985L15.3475 12.4199L4.55 7.58985L15.3475 2.74236Z" fill="black"/>
<path d="M25.7539 17.8008H24.043C24.0117 17.5794 23.9479 17.3828 23.8516 17.2109C23.7552 17.0365 23.6315 16.888 23.4805 16.7656C23.3294 16.6432 23.1549 16.5495 22.957 16.4844C22.7617 16.4193 22.5495 16.3867 22.3203 16.3867C21.9063 16.3867 21.5456 16.4896 21.2383 16.6953C20.931 16.8984 20.6927 17.1953 20.5234 17.5859C20.3542 17.974 20.2695 18.4453 20.2695 19C20.2695 19.5703 20.3542 20.0495 20.5234 20.4375C20.6953 20.8255 20.9349 21.1185 21.2422 21.3164C21.5495 21.5143 21.9049 21.6133 22.3086 21.6133C22.5352 21.6133 22.7448 21.5833 22.9375 21.5234C23.1328 21.4635 23.306 21.3763 23.457 21.2617C23.6081 21.1445 23.7331 21.0026 23.832 20.8359C23.9336 20.6693 24.0039 20.4792 24.043 20.2656L25.7539 20.2734C25.7096 20.6406 25.599 20.9948 25.4219 21.3359C25.2474 21.6745 25.0117 21.9779 24.7148 22.2461C24.4206 22.5117 24.069 22.7227 23.6602 22.8789C23.2539 23.0326 22.7943 23.1094 22.2813 23.1094C21.5677 23.1094 20.9297 22.9479 20.3672 22.625C19.8073 22.3021 19.3646 21.8346 19.0391 21.2227C18.7161 20.6107 18.5547 19.8698 18.5547 19C18.5547 18.1276 18.7188 17.3854 19.0469 16.7734C19.375 16.1615 19.8203 15.6953 20.3828 15.375C20.9453 15.0521 21.5781 14.8906 22.2813 14.8906C22.7448 14.8906 23.1745 14.9557 23.5703 15.0859C23.9688 15.2161 24.3216 15.4062 24.6289 15.6562C24.9362 15.9036 25.1862 16.207 25.3789 16.5664C25.5742 16.9258 25.6992 17.3372 25.7539 17.8008Z" fill="black"/>
</svg>
