<svg width="31" height="31" viewBox="0 0 31 31" fill="none" xmlns="http://www.w3.org/2000/svg">
<path d="M15.3125 0.5C15.4282 0.500003 15.5429 0.524389 15.6484 0.572266L15.6504 0.574219L29.6465 6.83691C29.8163 6.91621 29.9525 7.05285 30.0312 7.22266L30.0352 7.23145L30.04 7.24023C30.0817 7.32189 30.1082 7.40991 30.1191 7.5L30.125 7.59082V23.1641C30.1007 23.2929 30.049 23.415 29.9697 23.5195C29.8852 23.6309 29.7737 23.7191 29.6465 23.7773L15.6504 30.041L15.6396 30.0459C15.5377 30.0945 15.426 30.1201 15.3125 30.1201C15.2274 30.1201 15.1432 30.1058 15.0635 30.0781L14.9854 30.0459L14.9746 30.041L0.994141 23.7852C0.853169 23.7082 0.733898 23.5965 0.647461 23.4609C0.560539 23.3246 0.509806 23.1683 0.5 23.0068V7.60547C0.504981 7.44359 0.553579 7.28597 0.640625 7.14941C0.726847 7.01419 0.84743 6.90392 0.990234 6.83105L14.9746 0.574219L14.9766 0.572266C15.0821 0.524395 15.1968 0.5 15.3125 0.5ZM15.3486 12.9561L1.69629 7.12988L1.30371 8.0498L14.8477 13.8301V29.5H15.8477V13.8301L29.6953 7.95996L29.3047 7.04004L15.3486 12.9561Z" fill="#FBD83C" stroke="black"/>
<path d="M25.7539 17.8008H24.043C24.0117 17.5794 23.9479 17.3828 23.8516 17.2109C23.7552 17.0365 23.6315 16.888 23.4805 16.7656C23.3294 16.6432 23.1549 16.5495 22.957 16.4844C22.7617 16.4193 22.5495 16.3867 22.3203 16.3867C21.9063 16.3867 21.5456 16.4896 21.2383 16.6953C20.931 16.8984 20.6927 17.1953 20.5234 17.5859C20.3542 17.974 20.2695 18.4453 20.2695 19C20.2695 19.5703 20.3542 20.0495 20.5234 20.4375C20.6953 20.8255 20.9349 21.1185 21.2422 21.3164C21.5495 21.5143 21.9049 21.6133 22.3086 21.6133C22.5352 21.6133 22.7448 21.5833 22.9375 21.5234C23.1328 21.4635 23.306 21.3763 23.457 21.2617C23.6081 21.1445 23.7331 21.0026 23.832 20.8359C23.9336 20.6693 24.0039 20.4792 24.043 20.2656L25.7539 20.2734C25.7096 20.6406 25.599 20.9948 25.4219 21.3359C25.2474 21.6745 25.0117 21.9779 24.7148 22.2461C24.4206 22.5117 24.069 22.7227 23.6602 22.8789C23.2539 23.0326 22.7943 23.1094 22.2813 23.1094C21.5677 23.1094 20.9297 22.9479 20.3672 22.625C19.8073 22.3021 19.3646 21.8346 19.0391 21.2227C18.7161 20.6107 18.5547 19.8698 18.5547 19C18.5547 18.1276 18.7188 17.3854 19.0469 16.7734C19.375 16.1615 19.8203 15.6953 20.3828 15.375C20.9453 15.0521 21.5781 14.8906 22.2813 14.8906C22.7448 14.8906 23.1745 14.9557 23.5703 15.0859C23.9688 15.2161 24.3216 15.4062 24.6289 15.6562C24.9362 15.9036 25.1862 16.207 25.3789 16.5664C25.5742 16.9258 25.6992 17.3372 25.7539 17.8008Z" fill="black"/>
</svg>
